<?xml version="1.0" encoding="UTF-8" standalone="no"?>
<!DOCTYPE svg PUBLIC "-//W3C//DTD SVG 1.1//EN"
 "http://www.w3.org/Graphics/SVG/1.1/DTD/svg11.dtd">
<!-- Generated by graphviz version 2.43.0 (0)
 -->
<!-- Title: %3 Pages: 1 -->
<svg width="1317pt" height="620pt"
 viewBox="0.00 0.00 1317.32 620.00" xmlns="http://www.w3.org/2000/svg" xmlns:xlink="http://www.w3.org/1999/xlink">
<g id="graph0" class="graph" transform="scale(1 1) rotate(0) translate(4 616)">
<title>%3</title>
<polygon fill="white" stroke="transparent" points="-4,4 -4,-616 1313.32,-616 1313.32,4 -4,4"/>
<!-- [root] aws_cloudwatch_log_group.soundmonitor&#45;reporter (expand) -->
<g id="node1" class="node">
<title>[root] aws_cloudwatch_log_group.soundmonitor&#45;reporter (expand)</title>
<polygon fill="none" stroke="black" points="377,-180 0,-180 0,-144 377,-144 377,-180"/>
<text text-anchor="middle" x="188.5" y="-158.3" font-family="Times,serif" font-size="14.00">aws_cloudwatch_log_group.soundmonitor&#45;reporter</text>
</g>
<!-- [root] provider[&quot;registry.terraform.io/hashicorp/aws&quot;] -->
<g id="node8" class="node">
<title>[root] provider[&quot;registry.terraform.io/hashicorp/aws&quot;]</title>
<polygon fill="none" stroke="black" points="515.5,-108 190.24,-90 515.5,-72 840.76,-90 515.5,-108"/>
<text text-anchor="middle" x="515.5" y="-86.3" font-family="Times,serif" font-size="14.00">provider[&quot;registry.terraform.io/hashicorp/aws&quot;]</text>
</g>
<!-- [root] aws_cloudwatch_log_group.soundmonitor&#45;reporter (expand)&#45;&gt;[root] provider[&quot;registry.terraform.io/hashicorp/aws&quot;] -->
<g id="edge1" class="edge">
<title>[root] aws_cloudwatch_log_group.soundmonitor&#45;reporter (expand)&#45;&gt;[root] provider[&quot;registry.terraform.io/hashicorp/aws&quot;]</title>
<path fill="none" stroke="black" d="M268.08,-143.97C321.27,-132.58 390.72,-117.71 442.49,-106.63"/>
<polygon fill="black" stroke="black" points="443.23,-110.05 452.28,-104.53 441.76,-103.21 443.23,-110.05"/>
</g>
<!-- [root] aws_iam_policy.lambda_logging (expand) -->
<g id="node2" class="node">
<title>[root] aws_iam_policy.lambda_logging (expand)</title>
<polygon fill="none" stroke="black" points="636,-180 395,-180 395,-144 636,-144 636,-180"/>
<text text-anchor="middle" x="515.5" y="-158.3" font-family="Times,serif" font-size="14.00">aws_iam_policy.lambda_logging</text>
</g>
<!-- [root] aws_iam_policy.lambda_logging (expand)&#45;&gt;[root] provider[&quot;registry.terraform.io/hashicorp/aws&quot;] -->
<g id="edge2" class="edge">
<title>[root] aws_iam_policy.lambda_logging (expand)&#45;&gt;[root] provider[&quot;registry.terraform.io/hashicorp/aws&quot;]</title>
<path fill="none" stroke="black" d="M515.5,-143.7C515.5,-135.98 515.5,-126.71 515.5,-118.11"/>
<polygon fill="black" stroke="black" points="519,-118.1 515.5,-108.1 512,-118.1 519,-118.1"/>
</g>
<!-- [root] aws_iam_role.iam_for_lambda (expand) -->
<g id="node3" class="node">
<title>[root] aws_iam_role.iam_for_lambda (expand)</title>
<polygon fill="none" stroke="black" points="883,-180 654,-180 654,-144 883,-144 883,-180"/>
<text text-anchor="middle" x="768.5" y="-158.3" font-family="Times,serif" font-size="14.00">aws_iam_role.iam_for_lambda</text>
</g>
<!-- [root] aws_iam_role.iam_for_lambda (expand)&#45;&gt;[root] provider[&quot;registry.terraform.io/hashicorp/aws&quot;] -->
<g id="edge3" class="edge">
<title>[root] aws_iam_role.iam_for_lambda (expand)&#45;&gt;[root] provider[&quot;registry.terraform.io/hashicorp/aws&quot;]</title>
<path fill="none" stroke="black" d="M706.93,-143.97C667.42,-133.03 616.32,-118.9 576.86,-107.98"/>
<polygon fill="black" stroke="black" points="577.66,-104.57 567.09,-105.27 575.79,-111.31 577.66,-104.57"/>
</g>
<!-- [root] aws_iam_role_policy_attachment.lambda_logs (expand) -->
<g id="node4" class="node">
<title>[root] aws_iam_role_policy_attachment.lambda_logs (expand)</title>
<polygon fill="none" stroke="black" points="686.5,-252 344.5,-252 344.5,-216 686.5,-216 686.5,-252"/>
<text text-anchor="middle" x="515.5" y="-230.3" font-family="Times,serif" font-size="14.00">aws_iam_role_policy_attachment.lambda_logs</text>
</g>
<!-- [root] aws_iam_role_policy_attachment.lambda_logs (expand)&#45;&gt;[root] aws_iam_policy.lambda_logging (expand) -->
<g id="edge4" class="edge">
<title>[root] aws_iam_role_policy_attachment.lambda_logs (expand)&#45;&gt;[root] aws_iam_policy.lambda_logging (expand)</title>
<path fill="none" stroke="black" d="M515.5,-215.7C515.5,-207.98 515.5,-198.71 515.5,-190.11"/>
<polygon fill="black" stroke="black" points="519,-190.1 515.5,-180.1 512,-190.1 519,-190.1"/>
</g>
<!-- [root] aws_iam_role_policy_attachment.lambda_logs (expand)&#45;&gt;[root] aws_iam_role.iam_for_lambda (expand) -->
<g id="edge5" class="edge">
<title>[root] aws_iam_role_policy_attachment.lambda_logs (expand)&#45;&gt;[root] aws_iam_role.iam_for_lambda (expand)</title>
<path fill="none" stroke="black" d="M577.07,-215.97C613.19,-205.97 658.99,-193.3 696.74,-182.85"/>
<polygon fill="black" stroke="black" points="697.95,-186.15 706.66,-180.11 696.09,-179.4 697.95,-186.15"/>
</g>
<!-- [root] aws_lambda_function.func (expand) -->
<g id="node5" class="node">
<title>[root] aws_lambda_function.func (expand)</title>
<polygon fill="none" stroke="black" points="617.5,-324 413.5,-324 413.5,-288 617.5,-288 617.5,-324"/>
<text text-anchor="middle" x="515.5" y="-302.3" font-family="Times,serif" font-size="14.00">aws_lambda_function.func</text>
</g>
<!-- [root] aws_lambda_function.func (expand)&#45;&gt;[root] aws_cloudwatch_log_group.soundmonitor&#45;reporter (expand) -->
<g id="edge6" class="edge">
<title>[root] aws_lambda_function.func (expand)&#45;&gt;[root] aws_cloudwatch_log_group.soundmonitor&#45;reporter (expand)</title>
<path fill="none" stroke="black" d="M441.72,-287.89C408.54,-279.03 369.33,-266.92 335.5,-252 293.94,-233.67 249.82,-205.66 220.88,-185.97"/>
<polygon fill="black" stroke="black" points="222.64,-182.93 212.41,-180.15 218.67,-188.7 222.64,-182.93"/>
</g>
<!-- [root] aws_lambda_function.func (expand)&#45;&gt;[root] aws_iam_role_policy_attachment.lambda_logs (expand) -->
<g id="edge7" class="edge">
<title>[root] aws_lambda_function.func (expand)&#45;&gt;[root] aws_iam_role_policy_attachment.lambda_logs (expand)</title>
<path fill="none" stroke="black" d="M515.5,-287.7C515.5,-279.98 515.5,-270.71 515.5,-262.11"/>
<polygon fill="black" stroke="black" points="519,-262.1 515.5,-252.1 512,-262.1 519,-262.1"/>
</g>
<!-- [root] var.filename -->
<g id="node12" class="node">
<title>[root] var.filename</title>
<polygon fill="none" stroke="black" points="802.5,-252 704.5,-252 704.5,-216 808.5,-216 808.5,-246 802.5,-252"/>
<polyline fill="none" stroke="black" points="802.5,-252 802.5,-246 "/>
<polyline fill="none" stroke="black" points="808.5,-246 802.5,-246 "/>
<text text-anchor="middle" x="756.5" y="-230.3" font-family="Times,serif" font-size="14.00">var.filename</text>
</g>
<!-- [root] aws_lambda_function.func (expand)&#45;&gt;[root] var.filename -->
<g id="edge8" class="edge">
<title>[root] aws_lambda_function.func (expand)&#45;&gt;[root] var.filename</title>
<path fill="none" stroke="black" d="M574.15,-287.97C610.6,-277.38 657.41,-263.78 694.48,-253.01"/>
<polygon fill="black" stroke="black" points="695.54,-256.35 704.17,-250.2 693.59,-249.63 695.54,-256.35"/>
</g>
<!-- [root] aws_lambda_permission.allow_bucket (expand) -->
<g id="node6" class="node">
<title>[root] aws_lambda_permission.allow_bucket (expand)</title>
<polygon fill="none" stroke="black" points="763.5,-396 477.5,-396 477.5,-360 763.5,-360 763.5,-396"/>
<text text-anchor="middle" x="620.5" y="-374.3" font-family="Times,serif" font-size="14.00">aws_lambda_permission.allow_bucket</text>
</g>
<!-- [root] aws_lambda_permission.allow_bucket (expand)&#45;&gt;[root] aws_lambda_function.func (expand) -->
<g id="edge9" class="edge">
<title>[root] aws_lambda_permission.allow_bucket (expand)&#45;&gt;[root] aws_lambda_function.func (expand)</title>
<path fill="none" stroke="black" d="M594.81,-359.88C581.21,-350.81 564.33,-339.55 549.64,-329.76"/>
<polygon fill="black" stroke="black" points="551.55,-326.82 541.28,-324.19 547.66,-332.65 551.55,-326.82"/>
</g>
<!-- [root] var.records_bucket_arn -->
<g id="node13" class="node">
<title>[root] var.records_bucket_arn</title>
<polygon fill="none" stroke="black" points="811.5,-324 635.5,-324 635.5,-288 817.5,-288 817.5,-318 811.5,-324"/>
<polyline fill="none" stroke="black" points="811.5,-324 811.5,-318 "/>
<polyline fill="none" stroke="black" points="817.5,-318 811.5,-318 "/>
<text text-anchor="middle" x="726.5" y="-302.3" font-family="Times,serif" font-size="14.00">var.records_bucket_arn</text>
</g>
<!-- [root] aws_lambda_permission.allow_bucket (expand)&#45;&gt;[root] var.records_bucket_arn -->
<g id="edge10" class="edge">
<title>[root] aws_lambda_permission.allow_bucket (expand)&#45;&gt;[root] var.records_bucket_arn</title>
<path fill="none" stroke="black" d="M646.43,-359.88C660.16,-350.81 677.21,-339.55 692.04,-329.76"/>
<polygon fill="black" stroke="black" points="694.05,-332.62 700.47,-324.19 690.2,-326.78 694.05,-332.62"/>
</g>
<!-- [root] aws_s3_bucket_notification.bucket_notification (expand) -->
<g id="node7" class="node">
<title>[root] aws_s3_bucket_notification.bucket_notification (expand)</title>
<polygon fill="none" stroke="black" points="925,-468 576,-468 576,-432 925,-432 925,-468"/>
<text text-anchor="middle" x="750.5" y="-446.3" font-family="Times,serif" font-size="14.00">aws_s3_bucket_notification.bucket_notification</text>
</g>
<!-- [root] aws_s3_bucket_notification.bucket_notification (expand)&#45;&gt;[root] aws_lambda_permission.allow_bucket (expand) -->
<g id="edge11" class="edge">
<title>[root] aws_s3_bucket_notification.bucket_notification (expand)&#45;&gt;[root] aws_lambda_permission.allow_bucket (expand)</title>
<path fill="none" stroke="black" d="M718.7,-431.88C701.39,-422.55 679.78,-410.92 661.24,-400.94"/>
<polygon fill="black" stroke="black" points="662.89,-397.85 652.42,-396.19 659.57,-404.01 662.89,-397.85"/>
</g>
<!-- [root] var.records_bucket_name -->
<g id="node14" class="node">
<title>[root] var.records_bucket_name</title>
<polygon fill="none" stroke="black" points="973,-396 782,-396 782,-360 979,-360 979,-390 973,-396"/>
<polyline fill="none" stroke="black" points="973,-396 973,-390 "/>
<polyline fill="none" stroke="black" points="979,-390 973,-390 "/>
<text text-anchor="middle" x="880.5" y="-374.3" font-family="Times,serif" font-size="14.00">var.records_bucket_name</text>
</g>
<!-- [root] aws_s3_bucket_notification.bucket_notification (expand)&#45;&gt;[root] var.records_bucket_name -->
<g id="edge12" class="edge">
<title>[root] aws_s3_bucket_notification.bucket_notification (expand)&#45;&gt;[root] var.records_bucket_name</title>
<path fill="none" stroke="black" d="M782.3,-431.88C799.61,-422.55 821.22,-410.92 839.76,-400.94"/>
<polygon fill="black" stroke="black" points="841.43,-404.01 848.58,-396.19 838.11,-397.85 841.43,-404.01"/>
</g>
<!-- [root] var.aws_provider_key -->
<g id="node9" class="node">
<title>[root] var.aws_provider_key</title>
<polygon fill="none" stroke="black" points="396.5,-36 232.5,-36 232.5,0 402.5,0 402.5,-30 396.5,-36"/>
<polyline fill="none" stroke="black" points="396.5,-36 396.5,-30 "/>
<polyline fill="none" stroke="black" points="402.5,-30 396.5,-30 "/>
<text text-anchor="middle" x="317.5" y="-14.3" font-family="Times,serif" font-size="14.00">var.aws_provider_key</text>
</g>
<!-- [root] provider[&quot;registry.terraform.io/hashicorp/aws&quot;]&#45;&gt;[root] var.aws_provider_key -->
<g id="edge15" class="edge">
<title>[root] provider[&quot;registry.terraform.io/hashicorp/aws&quot;]&#45;&gt;[root] var.aws_provider_key</title>
<path fill="none" stroke="black" d="M473.51,-74.15C444.91,-64.04 406.68,-50.53 375.23,-39.41"/>
<polygon fill="black" stroke="black" points="376.29,-36.07 365.7,-36.04 373.96,-42.67 376.29,-36.07"/>
</g>
<!-- [root] var.aws_provider_secret -->
<g id="node10" class="node">
<title>[root] var.aws_provider_secret</title>
<polygon fill="none" stroke="black" points="604,-36 421,-36 421,0 610,0 610,-30 604,-36"/>
<polyline fill="none" stroke="black" points="604,-36 604,-30 "/>
<polyline fill="none" stroke="black" points="610,-30 604,-30 "/>
<text text-anchor="middle" x="515.5" y="-14.3" font-family="Times,serif" font-size="14.00">var.aws_provider_secret</text>
</g>
<!-- [root] provider[&quot;registry.terraform.io/hashicorp/aws&quot;]&#45;&gt;[root] var.aws_provider_secret -->
<g id="edge16" class="edge">
<title>[root] provider[&quot;registry.terraform.io/hashicorp/aws&quot;]&#45;&gt;[root] var.aws_provider_secret</title>
<path fill="none" stroke="black" d="M515.5,-71.7C515.5,-63.98 515.5,-54.71 515.5,-46.11"/>
<polygon fill="black" stroke="black" points="519,-46.1 515.5,-36.1 512,-46.1 519,-46.1"/>
</g>
<!-- [root] var.aws_region -->
<g id="node11" class="node">
<title>[root] var.aws_region</title>
<polygon fill="none" stroke="black" points="745,-36 628,-36 628,0 751,0 751,-30 745,-36"/>
<polyline fill="none" stroke="black" points="745,-36 745,-30 "/>
<polyline fill="none" stroke="black" points="751,-30 745,-30 "/>
<text text-anchor="middle" x="689.5" y="-14.3" font-family="Times,serif" font-size="14.00">var.aws_region</text>
</g>
<!-- [root] provider[&quot;registry.terraform.io/hashicorp/aws&quot;]&#45;&gt;[root] var.aws_region -->
<g id="edge17" class="edge">
<title>[root] provider[&quot;registry.terraform.io/hashicorp/aws&quot;]&#45;&gt;[root] var.aws_region</title>
<path fill="none" stroke="black" d="M552.83,-73.98C577.57,-64.03 610.37,-50.83 637.64,-39.86"/>
<polygon fill="black" stroke="black" points="639.06,-43.06 647.03,-36.08 636.45,-36.57 639.06,-43.06"/>
</g>
<!-- [root] meta.count&#45;boundary (EachMode fixup) -->
<g id="node15" class="node">
<title>[root] meta.count&#45;boundary (EachMode fixup)</title>
<ellipse fill="none" stroke="black" cx="484.5" cy="-522" rx="222.86" ry="18"/>
<text text-anchor="middle" x="484.5" y="-518.3" font-family="Times,serif" font-size="14.00">[root] meta.count&#45;boundary (EachMode fixup)</text>
</g>
<!-- [root] meta.count&#45;boundary (EachMode fixup)&#45;&gt;[root] aws_s3_bucket_notification.bucket_notification (expand) -->
<g id="edge13" class="edge">
<title>[root] meta.count&#45;boundary (EachMode fixup)&#45;&gt;[root] aws_s3_bucket_notification.bucket_notification (expand)</title>
<path fill="none" stroke="black" d="M546.53,-504.68C585.11,-494.52 634.95,-481.41 675.7,-470.68"/>
<polygon fill="black" stroke="black" points="676.81,-474.01 685.59,-468.08 675.03,-467.24 676.81,-474.01"/>
</g>
<!-- [root] provider[&quot;registry.terraform.io/hashicorp/aws&quot;] (close) -->
<g id="node16" class="node">
<title>[root] provider[&quot;registry.terraform.io/hashicorp/aws&quot;] (close)</title>
<ellipse fill="none" stroke="black" cx="1017.5" cy="-522" rx="291.65" ry="18"/>
<text text-anchor="middle" x="1017.5" y="-518.3" font-family="Times,serif" font-size="14.00">[root] provider[&quot;registry.terraform.io/hashicorp/aws&quot;] (close)</text>
</g>
<!-- [root] provider[&quot;registry.terraform.io/hashicorp/aws&quot;] (close)&#45;&gt;[root] aws_s3_bucket_notification.bucket_notification (expand) -->
<g id="edge14" class="edge">
<title>[root] provider[&quot;registry.terraform.io/hashicorp/aws&quot;] (close)&#45;&gt;[root] aws_s3_bucket_notification.bucket_notification (expand)</title>
<path fill="none" stroke="black" d="M954.22,-504.41C915.62,-494.29 866.06,-481.3 825.48,-470.66"/>
<polygon fill="black" stroke="black" points="826.2,-467.23 815.64,-468.08 824.43,-474 826.2,-467.23"/>
</g>
<!-- [root] root -->
<g id="node17" class="node">
<title>[root] root</title>
<ellipse fill="none" stroke="black" cx="750.5" cy="-594" rx="58.49" ry="18"/>
<text text-anchor="middle" x="750.5" y="-590.3" font-family="Times,serif" font-size="14.00">[root] root</text>
</g>
<!-- [root] root&#45;&gt;[root] meta.count&#45;boundary (EachMode fixup) -->
<g id="edge18" class="edge">
<title>[root] root&#45;&gt;[root] meta.count&#45;boundary (EachMode fixup)</title>
<path fill="none" stroke="black" d="M707.47,-581.68C666.75,-570.96 604.85,-554.67 556.6,-541.97"/>
<polygon fill="black" stroke="black" points="557.39,-538.56 546.83,-539.4 555.61,-545.33 557.39,-538.56"/>
</g>
<!-- [root] root&#45;&gt;[root] provider[&quot;registry.terraform.io/hashicorp/aws&quot;] (close) -->
<g id="edge19" class="edge">
<title>[root] root&#45;&gt;[root] provider[&quot;registry.terraform.io/hashicorp/aws&quot;] (close)</title>
<path fill="none" stroke="black" d="M793.4,-581.75C834.01,-571.11 895.81,-554.9 944.23,-542.21"/>
<polygon fill="black" stroke="black" points="945.25,-545.56 954.04,-539.64 943.48,-538.79 945.25,-545.56"/>
</g>
</g>
</svg>
